<svg xmlns="http://www.w3.org/2000/svg" viewBox="0 0 74.89 74.89"><defs><style>.cls-1{fill:#fff;}.cls-2{fill:#e20613;}</style></defs><g id="Layer_2" data-name="Layer 2"><g id="Layer_1-2" data-name="Layer 1"><circle class="cls-1" cx="37.45" cy="37.45" r="37.45"/><path class="cls-2" d="M41.7,29.07a6.18,6.18,0,0,0-8.64,0A5.51,5.51,0,0,0,31.56,32a35.14,35.14,0,0,0-.26,5.37,35.21,35.21,0,0,0,.26,5.38,5.51,5.51,0,0,0,1.5,2.91,6.18,6.18,0,0,0,8.64,0,5.65,5.65,0,0,0,1.5-2.91,37.05,37.05,0,0,0,.25-5.38A37,37,0,0,0,43.2,32,5.65,5.65,0,0,0,41.7,29.07Zm-2,15.33H39V40.33l-1.3,3.26h-.61l-1.33-3.27V44.4H35V38.24h.67l1.7,4.19,1.65-4.19h.68ZM36,34.65a1.36,1.36,0,0,0,.38.72,2,2,0,0,0,1.3.44,1.47,1.47,0,0,0,.74-.17,2.24,2.24,0,0,0,.62-.47l.13-.13.6.59-.14.14a2.84,2.84,0,0,1-2,.85,2.92,2.92,0,0,1-2-.71,2,2,0,0,1-.57-1.08A11.5,11.5,0,0,1,35,33.16a11.7,11.7,0,0,1,.08-1.67,2,2,0,0,1,.57-1.07,2.92,2.92,0,0,1,2-.71,2.8,2.8,0,0,1,2,.85l.14.13-.6.6L39,31.16a2.91,2.91,0,0,0-.62-.49,1.72,1.72,0,0,0-.74-.15,2,2,0,0,0-1.31.44,1.38,1.38,0,0,0-.37.72,11.24,11.24,0,0,0-.07,1.48A11.31,11.31,0,0,0,36,34.65Z"/><path class="cls-2" d="M54.64,40.38l-.51-2a4.79,4.79,0,0,1,0-2.13l.51-2a1.27,1.27,0,0,0-.15-.79l-1.23-1.62a4.92,4.92,0,0,1-.81-2l-.28-2a1.16,1.16,0,0,0-.44-.66l-1.75-1a4.84,4.84,0,0,1-1.51-1.51l-1-1.75a1.22,1.22,0,0,0-.67-.44l-2-.28a4.8,4.8,0,0,1-2-.82l-1.62-1.22a1.25,1.25,0,0,0-.63-.17.32.32,0,0,0-.15,0l-2,.51a4.77,4.77,0,0,1-1.06.12,4.85,4.85,0,0,1-1.07-.12l-2-.51a.4.4,0,0,0-.15,0,1.25,1.25,0,0,0-.63.17L32,21.47a5,5,0,0,1-2,.81l-2,.28a1.25,1.25,0,0,0-.66.44l-1,1.75a4.91,4.91,0,0,1-1.5,1.51l-1.75,1a1.18,1.18,0,0,0-.45.66l-.28,2a4.7,4.7,0,0,1-.81,2l-1.22,1.62a1.19,1.19,0,0,0-.16.78l.51,2a4.79,4.79,0,0,1,0,2.13l-.51,2a1.18,1.18,0,0,0,.16.78l1.22,1.62a4.69,4.69,0,0,1,.81,2l.28,2a1.21,1.21,0,0,0,.45.66l1.75,1a4.88,4.88,0,0,1,1.5,1.5l1,1.75a1.2,1.2,0,0,0,.66.44l2,.29a4.74,4.74,0,0,1,2,.81l1.62,1.22a1.24,1.24,0,0,0,.62.17h.16l2-.51A4.26,4.26,0,0,1,37.38,54a4.37,4.37,0,0,1,1.07.12l2,.51h.15a1.09,1.09,0,0,0,.62-.17l1.63-1.22a4.65,4.65,0,0,1,2-.81l2-.29a1.22,1.22,0,0,0,.67-.44l1-1.75A4.91,4.91,0,0,1,50,48.45l1.75-1a1.2,1.2,0,0,0,.44-.66l.28-2a4.89,4.89,0,0,1,.82-2l1.22-1.62A1.24,1.24,0,0,0,54.64,40.38Zm-9.75,2.76a6.44,6.44,0,0,1-1.82,3.46,8.12,8.12,0,0,1-11.39,0,6.51,6.51,0,0,1-1.82-3.46,37,37,0,0,1-.29-5.79,37,37,0,0,1,.29-5.79,6.52,6.52,0,0,1,1.82-3.45,8.1,8.1,0,0,1,11.39,0,6.45,6.45,0,0,1,1.82,3.45,35.8,35.8,0,0,1,.29,5.79A35.8,35.8,0,0,1,44.89,43.14Z"/><path d="M9.08,34a1.62,1.62,0,0,0-.79-1,1.66,1.66,0,0,0-.62-.19,1.62,1.62,0,0,0-.66.07,1.59,1.59,0,0,0-.56.3,1.75,1.75,0,0,0-.4.49,1.64,1.64,0,0,0-.18.63,1.55,1.55,0,0,0,.06.65,1.66,1.66,0,0,0,.31.55,1.63,1.63,0,0,0,.49.41,1.78,1.78,0,0,0,.62.19h.16A1.66,1.66,0,0,0,8,36.09a1.82,1.82,0,0,0,.56-.31,1.72,1.72,0,0,0,.4-.49,1.5,1.5,0,0,0,.19-.62A1.61,1.61,0,0,0,9.08,34Z"/><path class="cls-2" d="M13.7,18.49c.47.32.8.56,1,.73a2.69,2.69,0,0,1,.5.52,1.79,1.79,0,0,1,.26.66,2.21,2.21,0,0,1,0,.85,2.36,2.36,0,0,1-.34.8,2.57,2.57,0,0,1-.62.61,2.35,2.35,0,0,1-.79.32A1.88,1.88,0,0,1,13,23a2.66,2.66,0,0,1-.67-.28c-.23-.13-.58-.36-1-.67s-.8-.56-1-.73a2.43,2.43,0,0,1-.5-.52,1.79,1.79,0,0,1-.26-.66,2.17,2.17,0,0,1,.36-1.65,2.12,2.12,0,0,1,.62-.61,2.22,2.22,0,0,1,.78-.32,1.69,1.69,0,0,1,.71,0,2.52,2.52,0,0,1,.67.28C12.89,18,13.24,18.18,13.7,18.49Zm-.27.4c-.4-.28-.72-.49-.95-.62a2.53,2.53,0,0,0-.61-.26,1.66,1.66,0,0,0-.59,0,1.78,1.78,0,0,0-.6.25,1.68,1.68,0,0,0-.46.46,1.83,1.83,0,0,0-.26.59A1.63,1.63,0,0,0,10,20a1.65,1.65,0,0,0,.14.41,2.1,2.1,0,0,0,.29.37,5.08,5.08,0,0,0,.48.4c.19.14.42.31.7.49s.72.48.95.62a3,3,0,0,0,.61.26,1.41,1.41,0,0,0,.58,0,1.73,1.73,0,0,0,1.07-.71,1.61,1.61,0,0,0,.26-.6,1.53,1.53,0,0,0,0-.64,1.28,1.28,0,0,0-.22-.55,2.23,2.23,0,0,0-.46-.47C14.15,19.39,13.84,19.17,13.43,18.89Z"/><path class="cls-2" d="M13.34,23.23a1.67,1.67,0,0,1-.39,0,2.62,2.62,0,0,1-.73-.3c-.24-.14-.59-.37-1.05-.68s-.81-.57-1-.74a2.62,2.62,0,0,1-.54-.57,1.82,1.82,0,0,1-.29-.74,2.29,2.29,0,0,1,0-.94,2.51,2.51,0,0,1,.37-.88,2.7,2.7,0,0,1,.68-.67,2.33,2.33,0,0,1,.87-.34,1.8,1.8,0,0,1,.8,0,2.35,2.35,0,0,1,.73.3c.24.14.58.36,1.06.68s.81.57,1,.74a2.87,2.87,0,0,1,.54.57,2,2,0,0,1,.3.74,2.48,2.48,0,0,1,0,.94,2.39,2.39,0,0,1-.37.87,2.41,2.41,0,0,1-.68.67,2.37,2.37,0,0,1-.87.36ZM9.71,19.84l0,.24a1.54,1.54,0,0,0,.22.57,2.3,2.3,0,0,0,.46.48c.21.16.54.4,1,.71s.8.54,1,.67a2.54,2.54,0,0,0,.61.25,1.61,1.61,0,0,0,.62,0,1.68,1.68,0,0,0,.32-.09,1,1,0,0,1-.25.06,1.52,1.52,0,0,1-.67,0,2.46,2.46,0,0,1-.67-.28c-.24-.14-.56-.35-1-.62l-.7-.5a5.79,5.79,0,0,1-.5-.42,1.71,1.71,0,0,1-.33-.43A1.75,1.75,0,0,1,9.73,20C9.72,20,9.72,19.89,9.71,19.84Zm1.85-1.64-.24,0a1.45,1.45,0,0,0-.51.21,1.55,1.55,0,0,0-.63.92,1.22,1.22,0,0,0,0,.57.92.92,0,0,0,.12.34,1.34,1.34,0,0,0,.25.32A3.88,3.88,0,0,0,11,21l.68.48c.4.27.71.48.94.6a2,2,0,0,0,.56.24,1.1,1.1,0,0,0,.48,0,1.39,1.39,0,0,0,.52-.21,1.56,1.56,0,0,0,.41-.4,1.48,1.48,0,0,0,.22-.52,1.51,1.51,0,0,0,0-.56,1.27,1.27,0,0,0-.19-.46,2.09,2.09,0,0,0-.42-.43c-.19-.16-.5-.37-.9-.65s-.72-.48-.94-.6a2,2,0,0,0-.56-.24A1,1,0,0,0,11.56,18.2Zm0-.44a1.47,1.47,0,0,1,.36,0,2.6,2.6,0,0,1,.67.28c.23.13.56.34,1,.62s.72.51.93.67a2.78,2.78,0,0,1,.51.53,1.62,1.62,0,0,1,.25.62,1.71,1.71,0,0,1,0,.31,1.29,1.29,0,0,0,0-.39,1.48,1.48,0,0,0-.22-.57,2.3,2.3,0,0,0-.46-.48c-.2-.16-.52-.39-1-.71s-.81-.54-1-.67a2.19,2.19,0,0,0-.61-.25,1.61,1.61,0,0,0-.62,0l-.29.08.21-.05Z"/><path class="cls-2" d="M19,10,16.4,12,18,14,20.2,12.3l.26.33-2.23,1.73L20,16.6l-.38.29L15.77,12l3-2.32Z"/><path class="cls-2" d="M19.54,17.2l-4.08-5.29L18.8,9.32l.53.69-2.62,2L18,13.71,20.24,12l.53.68L18.54,14.4l1.73,2.24ZM16.08,12l3.54,4.59,0,0-1.73-2.24h0L16.1,12Z"/><path class="cls-2" d="M27.92,5.77l-3.1,1.16.9,2.41,2.64-1,.15.4-2.65,1,1,2.66-.45.16L24.23,6.71l3.54-1.33Z"/><path class="cls-2" d="M26.28,12.84,23.94,6.58l4-1.48.3.8L25.1,7.06l.75,2,2.64-1,.3.8-2.64,1,1,2.66Zm-1.77-6,2,5.43h0l-1-2.66h0l-1-2.77Z"/><path class="cls-2" d="M34.76,10.41l-.48.05-.66-6.2.48-.06Z"/><path class="cls-2" d="M34.09,10.7l-.71-6.64.91-.1L35,10.61Zm-.22-6.25.61,5.77h0L33.9,4.45Z"/><path class="cls-2" d="M44,9.2a2.4,2.4,0,0,1-.55.9,2,2,0,0,1-.82.51,2.14,2.14,0,0,1-1,.06,2.38,2.38,0,0,1-.82-.3,2.15,2.15,0,0,1-.63-.57,1.89,1.89,0,0,1-.3-.65,2.11,2.11,0,0,1,0-.72c0-.26.07-.67.16-1.23s.16-1,.22-1.22a2.4,2.4,0,0,1,.26-.67A1.68,1.68,0,0,1,41,4.79a2,2,0,0,1,.78-.35,2.3,2.3,0,0,1,.87,0,2.24,2.24,0,0,1,.94.37,2,2,0,0,1,.63.74,2.39,2.39,0,0,1,.24,1L44,6.46a1.76,1.76,0,0,0-.41-1.1,1.53,1.53,0,0,0-1-.54,1.58,1.58,0,0,0-.65,0,1.38,1.38,0,0,0-.59.27,1.11,1.11,0,0,0-.31.3,2,2,0,0,0-.22.42,5.92,5.92,0,0,0-.16.61c0,.23-.09.51-.14.84s-.13.86-.15,1.12a2.4,2.4,0,0,0,0,.67,1.36,1.36,0,0,0,.24.52,1.55,1.55,0,0,0,.48.44,1.5,1.5,0,0,0,.61.22,1.69,1.69,0,0,0,.78,0,1.61,1.61,0,0,0,.64-.4,2,2,0,0,0,.44-.68Z"/><path class="cls-2" d="M42,10.92l-.42,0a2.34,2.34,0,0,1-.89-.33,2.48,2.48,0,0,1-.7-.63,1.9,1.9,0,0,1-.33-.73,2.77,2.77,0,0,1-.05-.78c0-.28.08-.7.17-1.25s.16-1,.23-1.24a2.42,2.42,0,0,1,.28-.73,2,2,0,0,1,.54-.59,2.4,2.4,0,0,1,.86-.39,2.52,2.52,0,0,1,1,0,2.47,2.47,0,0,1,1,.41,2.21,2.21,0,0,1,.7.82,2.68,2.68,0,0,1,.26,1.12v.26l-.91-.14V6.47a1.55,1.55,0,0,0-.36-1A1.33,1.33,0,0,0,42.55,5a1.56,1.56,0,0,0-.57,0,1.36,1.36,0,0,0-.52.24,1,1,0,0,0-.25.25,1.4,1.4,0,0,0-.19.37,3.34,3.34,0,0,0-.15.57c0,.23-.09.51-.15.83-.07.5-.12.86-.14,1.1a1.92,1.92,0,0,0,0,.61,1,1,0,0,0,.2.44,1.35,1.35,0,0,0,.41.38,1.54,1.54,0,0,0,.54.2,1.5,1.5,0,0,0,.67,0A1.39,1.39,0,0,0,43,9.65a1.62,1.62,0,0,0,.38-.6l.06-.17.9.14-.09.25a2.48,2.48,0,0,1-.59,1,2.16,2.16,0,0,1-.92.57A2.26,2.26,0,0,1,42,10.92Zm1.68-1.55a2.15,2.15,0,0,1-.42.6,1.68,1.68,0,0,1-.5.35,1.63,1.63,0,0,0,.54-.37,2.26,2.26,0,0,0,.39-.58ZM41.36,4.83,41.13,5a1.49,1.49,0,0,0-.42.45,2,2,0,0,0-.23.61c-.06.26-.14.67-.22,1.21s-.14.94-.16,1.21a2.32,2.32,0,0,0,0,.66,1.65,1.65,0,0,0,.26.56,2,2,0,0,0,.24.27,1.24,1.24,0,0,1-.18-.22,1.54,1.54,0,0,1-.28-.61,2.79,2.79,0,0,1,0-.73c0-.26.07-.63.15-1.14q.08-.5.15-.84a3.11,3.11,0,0,1,.17-.64,1.79,1.79,0,0,1,.24-.48,1.5,1.5,0,0,1,.36-.35Zm2.83,1.44h0a2,2,0,0,0-.2-.66,1.66,1.66,0,0,0-.48-.6l.2.2A2,2,0,0,1,44.19,6.27Z"/><path class="cls-2" d="M48.66,12.74l-.43-.2,2.55-5.69.44.19Z"/><path class="cls-2" d="M48.77,13l-.83-.38,2.73-6.09.84.37Zm-.25-.6,0,0,2.37-5.3h0Z"/><path class="cls-2" d="M56.32,17.84l-.4-.32L56.44,16l-2.27-1.82L52.81,15l-.4-.32,5.69-3.43.34.26Zm.28-2.27,1.27-3.68-3.31,2Z"/><path class="cls-2" d="M56.43,18.21l-.77-.62.52-1.52-2-1.62-1.36.84L52,14.67,58.12,11l.58.46Zm-.25-.77,0,0,1.09-3.25-.6,1.73h0ZM54.94,14l1.55,1.24,1-2.8Zm-2.15.76,0,0,1.36-.84h0l1.38-.85Z"/><path class="cls-2" d="M61.13,24.14,59,21l5.18-3.47.27.39-4.84,3.24,1.85,2.76Z"/><path class="cls-2" d="M61.07,24.45l-2.36-3.52,5.55-3.72.52.76-4.84,3.25L61.79,24Zm-1.74-3.4,0,0,4.81-3.23,0,0Z"/><path d="M68.71,33.7a1.63,1.63,0,0,0-.41-.49,1.45,1.45,0,0,0-.56-.3,1.59,1.59,0,0,0-.65-.07,1.5,1.5,0,0,0-.61.19,1.64,1.64,0,0,0-.5.41,1.77,1.77,0,0,0-.3.56,1.54,1.54,0,0,0-.07.64,1.78,1.78,0,0,0,.19.62,1.77,1.77,0,0,0,1,.8,1.59,1.59,0,0,0,.48.07h.17a1.5,1.5,0,0,0,.63-.19,1.6,1.6,0,0,0,.49-.4,1.48,1.48,0,0,0,.3-.55,1.62,1.62,0,0,0,.07-.66A1.66,1.66,0,0,0,68.71,33.7Z"/><path class="cls-2" d="M7.6,48a2.22,2.22,0,0,1-1-.12,1.87,1.87,0,0,1-.81-.54,2.19,2.19,0,0,1-.48-.89,2.27,2.27,0,0,1-.07-.86,2.1,2.1,0,0,1,.27-.81,1.62,1.62,0,0,1,.45-.54,2.28,2.28,0,0,1,.64-.34c.25-.09.65-.21,1.19-.36s.94-.26,1.2-.31a2.6,2.6,0,0,1,.72-.05,1.72,1.72,0,0,1,.68.23,2.23,2.23,0,0,1,.64.55,2.35,2.35,0,0,1,.45,1.79,1.93,1.93,0,0,1-.41.88,2.36,2.36,0,0,1-.83.64l-.13-.46A1.76,1.76,0,0,0,10.9,46,1.62,1.62,0,0,0,11,44.82a1.76,1.76,0,0,0-.29-.58,1.55,1.55,0,0,0-.49-.43,1.51,1.51,0,0,0-.41-.16,1.79,1.79,0,0,0-.47,0,3,3,0,0,0-.62.11L7.88,44c-.48.14-.84.25-1.08.34a2.79,2.79,0,0,0-.6.3,1.48,1.48,0,0,0-.38.44,1.67,1.67,0,0,0-.2.62,1.78,1.78,0,0,0,.06.65,1.56,1.56,0,0,0,1,1.1,2,2,0,0,0,.81.12Z"/><path class="cls-2" d="M7.33,48.2a2.41,2.41,0,0,1-.85-.14,2,2,0,0,1-.89-.6,2.39,2.39,0,0,1-.53-1A2.54,2.54,0,0,1,5,45.53a2.45,2.45,0,0,1,.29-.89A2,2,0,0,1,5.79,44a2.57,2.57,0,0,1,.7-.37c.26-.09.68-.22,1.2-.37s1-.25,1.22-.31a3,3,0,0,1,.78,0,2.06,2.06,0,0,1,.76.25,2.36,2.36,0,0,1,.71.62,2.28,2.28,0,0,1,.43.85,2.49,2.49,0,0,1,.07,1.11,2.25,2.25,0,0,1-.45,1,2.62,2.62,0,0,1-.92.7l-.23.12-.25-.89.16-.08a1.58,1.58,0,0,0,.73-.74,1.51,1.51,0,0,0-.19-1.48,1.37,1.37,0,0,0-.42-.37,1.46,1.46,0,0,0-.34-.13,1.86,1.86,0,0,0-.42,0,4.16,4.16,0,0,0-.58.1l-.81.22c-.47.13-.83.24-1.06.33a2.17,2.17,0,0,0-.55.27,1.12,1.12,0,0,0-.31.37,1.24,1.24,0,0,0-.18.53,1.56,1.56,0,0,0,0,.57,1.47,1.47,0,0,0,.32.59,1.28,1.28,0,0,0,.54.37,1.68,1.68,0,0,0,.71.09h.18l.25.87-.27,0ZM6,47.3a1.74,1.74,0,0,0,.59.35,2.15,2.15,0,0,0,.68.11h0a1.87,1.87,0,0,1-.71-.13A2,2,0,0,1,6,47.3Zm4.29-.41v0a2.32,2.32,0,0,0,.52-.46,1.6,1.6,0,0,0,.35-.7,1.62,1.62,0,0,1-.11.28A2,2,0,0,1,10.33,46.89Zm-.86-3.53a2,2,0,0,0-.47.06c-.27,0-.67.15-1.19.3s-.92.27-1.17.36a2,2,0,0,0-.58.3,1.56,1.56,0,0,0-.4.47,1.73,1.73,0,0,0-.14.31,1.63,1.63,0,0,1,.11-.23,1.52,1.52,0,0,1,.44-.5,2.63,2.63,0,0,1,.65-.34c.25-.09.62-.21,1.1-.34l.82-.22a3.92,3.92,0,0,1,.66-.11,1.81,1.81,0,0,1,.53,0,1.52,1.52,0,0,1,.47.18l.14.08a1.37,1.37,0,0,0-.2-.13,1.59,1.59,0,0,0-.59-.2Z"/><path class="cls-2" d="M12.62,59.79l-.32-.4L13.16,58l-1.78-2.29-1.53.5-.31-.41,6.33-2,.27.33Zm.79-2.13,2.1-3.29-3.7,1.22Z"/><path class="cls-2" d="M12.63,60.18,12,59.4l.86-1.35L11.3,56l-1.53.5-.6-.77L16,53.56l.44.58Zm-.06-.8,0,0,1.78-2.86-1,1.49h0Zm-.4-3.68,1.22,1.57,1.6-2.5ZM9.91,56l0,0,1.51-.5h0L13,55Z"/><path class="cls-2" d="M22.81,67.41l-.48-.28.14-3.23L21,63l-1.43,2.5-.41-.24,3.11-5.41,2.06,1.18a2,2,0,0,1,.7.63,1.42,1.42,0,0,1,.26.81,1.88,1.88,0,0,1-1.14,1.69,1.75,1.75,0,0,1-1.19,0Zm1.8-4.22a1.21,1.21,0,0,0,.14-1,1.44,1.44,0,0,0-.7-.77l-1.6-.92-1.26,2.19,1.6.92a1.59,1.59,0,0,0,.52.2,1.17,1.17,0,0,0,.49,0,1.09,1.09,0,0,0,.44-.2A1.58,1.58,0,0,0,24.61,63.19Z"/><path class="cls-2" d="M23,67.78l-.91-.52L22.24,64l-1.18-.68-1.43,2.5-.79-.46,3.33-5.79,2.25,1.29a2.37,2.37,0,0,1,.77.7,1.63,1.63,0,0,1,.3.93,1.94,1.94,0,0,1-.27,1,1.9,1.9,0,0,1-1,.89,1.86,1.86,0,0,1-1.05,0ZM22.56,67l0,0,.13-3.2L23,64a1.53,1.53,0,0,0,1,0,1.65,1.65,0,0,0,1-1.47,1.23,1.23,0,0,0-.22-.69l0-.07a1.29,1.29,0,0,1,.18.35,1.4,1.4,0,0,1-.16,1.19,1.6,1.6,0,0,1-.43.49,1.11,1.11,0,0,1-.53.24,1.42,1.42,0,0,1-.58,0,2,2,0,0,1-.56-.22Zm-3.12-1.79h0l1.43-2.49h0l1.46-2.53,0,0Zm2-2.62,1.41.8a1.79,1.79,0,0,0,.46.19,1.08,1.08,0,0,0,.4,0,.85.85,0,0,0,.35-.16,1.39,1.39,0,0,0,.31-.36,1,1,0,0,0,.12-.82,1.26,1.26,0,0,0-.6-.66l-1.41-.81Z"/><path class="cls-2" d="M45.18,69.86l-.47.07-.81-5.08-1.2,4.51-.47.08-2.57-3.92.81,5.08-.47.08-1-6.17.47-.07,2.9,4.41,1.34-5.08.47-.08Z"/><path class="cls-2" d="M39.82,70.93l-1-6.6.83-.13,2.71,4.12,1.25-4.75.82-.13,1,6.6-.9.14-.68-4.26-1,3.64-.75.12L40,66.5l.68,4.29Zm-.55-6.23.91,5.73h0l-.91-5.73ZM44,64l.91,5.73h0L44,64Zm-4.6.73,3,4.52h0l-3-4.51ZM43.91,64l-.15.56.15-.56Z"/><path class="cls-2" d="M57.64,63.94l-.43.28-1.28-1-2.44,1.58.37,1.56-.43.28L52,60.19l.35-.23Zm-2.07-1L52.48,60.6l.9,3.79Z"/><path class="cls-2" d="M53.29,67l-1.58-6.94.61-.4L58,64l-.82.53-1.28-1-2.18,1.41.37,1.56Zm-.43-3.85.72,3.13,0,0-.37-1.54h0Zm0-2L53.52,64,55.19,63ZM56,63l1.27,1,0,0-2.67-2L56,63Z"/><path class="cls-2" d="M60.87,51.81l-1.1,1.51,4.72,3.41-.28.39L59.5,53.7l-1.09,1.51L58.07,55l2.46-3.4Z"/><path class="cls-2" d="M64.26,57.43,59.55,54l-1.09,1.51-.7-.51,2.72-3.76.7.51-1.1,1.51,4.72,3.41Zm-4.79-4,4.69,3.4,0,0-4.7-3.4Z"/><path class="cls-2" d="M68.47,43.63a1.72,1.72,0,0,1,.65.32,1.52,1.52,0,0,1,.42.55,1.82,1.82,0,0,1,.16.73,3.08,3.08,0,0,1-.11.88,4.46,4.46,0,0,1-.29.76,2.34,2.34,0,0,1-.44.58,2.84,2.84,0,0,1-.61.45L68,47.49a3,3,0,0,0,.57-.41A1.68,1.68,0,0,0,69,46.6a2.58,2.58,0,0,0,.24-.63,2.15,2.15,0,0,0,.08-.85,1.25,1.25,0,0,0-.29-.66,1.19,1.19,0,0,0-.61-.37,1.14,1.14,0,0,0-.94.1,1,1,0,0,0-.29.29,3.05,3.05,0,0,0-.27.5l-.3.67a2,2,0,0,1-.73,1,1.38,1.38,0,0,1-1.23.18,1.93,1.93,0,0,1-.66-.32,1.58,1.58,0,0,1-.41-.52,1.62,1.62,0,0,1-.17-.68,2.85,2.85,0,0,1,.09-.8,2.59,2.59,0,0,1,.42-.9,2.62,2.62,0,0,1,.7-.66l.22.38a2.42,2.42,0,0,0-.6.53,2,2,0,0,0-.35.78,1.56,1.56,0,0,0,0,1.12,1.23,1.23,0,0,0,.81.61,1,1,0,0,0,.87-.09,1.93,1.93,0,0,0,.35-.35,2.68,2.68,0,0,0,.27-.45l.28-.62a3.15,3.15,0,0,1,.32-.62,1.33,1.33,0,0,1,.36-.35,1.3,1.3,0,0,1,.62-.25A1.48,1.48,0,0,1,68.47,43.63Z"/><path class="cls-2" d="M68.17,48.2l-.45-.79.19-.11a2.9,2.9,0,0,0,.53-.38,1.61,1.61,0,0,0,.32-.42,3.52,3.52,0,0,0,.22-.58,1.94,1.94,0,0,0,.07-.77,1,1,0,0,0-.74-.85.88.88,0,0,0-.76.08,1,1,0,0,0-.23.22,3.67,3.67,0,0,0-.25.47l-.29.67a2.42,2.42,0,0,1-.82,1,1.63,1.63,0,0,1-1.41.2,2.08,2.08,0,0,1-.73-.36,1.61,1.61,0,0,1-.48-.59,1.94,1.94,0,0,1-.19-.77,2.71,2.71,0,0,1,.1-.87,2.91,2.91,0,0,1,.45-1,2.75,2.75,0,0,1,.76-.71l.2-.14.43.77-.17.12a2,2,0,0,0-.54.47,2,2,0,0,0-.32.71,1.35,1.35,0,0,0,0,1,1,1,0,0,0,.67.5,1.2,1.2,0,0,0,.31,0h0a.56.56,0,0,0,.37-.11,1.71,1.71,0,0,0,.31-.3,2.3,2.3,0,0,0,.23-.4l.28-.62a4.07,4.07,0,0,1,.35-.65,1.68,1.68,0,0,1,.42-.42,1.64,1.64,0,0,1,.7-.28,1.78,1.78,0,0,1,.79.05,1.85,1.85,0,0,1,.73.36,1.7,1.7,0,0,1,.48.62,2.14,2.14,0,0,1,.18.82,3.11,3.11,0,0,1-.12.94,3.34,3.34,0,0,1-.31.81,2.39,2.39,0,0,1-.48.64,3.15,3.15,0,0,1-.64.48Zm.15-.63v0a2.28,2.28,0,0,0,.38-.3l.21-.23-.18.18A3.85,3.85,0,0,1,68.32,47.57ZM63.81,46a1.18,1.18,0,0,0,.28.31,1.49,1.49,0,0,0,.58.28,1.19,1.19,0,0,0,1-.14,1.82,1.82,0,0,0,.57-.69,1.67,1.67,0,0,1-.18.28,1.89,1.89,0,0,1-.4.4,1.12,1.12,0,0,1-.63.19h0a1.71,1.71,0,0,1-.43-.06A1.42,1.42,0,0,1,63.81,46ZM68,43.81a1.9,1.9,0,0,1,.45.07,1.44,1.44,0,0,1,.72.44,1.28,1.28,0,0,1,.24.39l0-.12a1.29,1.29,0,0,0-.36-.47,1.48,1.48,0,0,0-.56-.28,1.6,1.6,0,0,0-.61,0,1.14,1.14,0,0,0-.52.22,1.09,1.09,0,0,0-.25.23,1.05,1.05,0,0,1,.27-.24A1.2,1.2,0,0,1,68,43.81Z"/></g></g></svg>