<svg xmlns="http://www.w3.org/2000/svg" viewBox="0 0 87.83 131.76"><defs><style>.cls-1{fill:#5c9196;}.cls-2{fill:#fff;}.cls-3{fill:#e20613;}</style></defs><g id="Layer_2" data-name="Layer 2"><g id="Layer_1-2" data-name="Layer 1"><polygon class="cls-1" points="87.83 131.76 43.3 110.73 0 131.76 0 0 87.83 0 87.83 131.76"/><circle class="cls-2" cx="44.92" cy="54.82" r="37.45"/><path class="cls-3" d="M49.16,46.44a6.17,6.17,0,0,0-8.63,0A5.59,5.59,0,0,0,39,49.35a37.15,37.15,0,0,0-.25,5.38A37,37,0,0,0,39,60.1,5.52,5.52,0,0,0,40.53,63a6.17,6.17,0,0,0,8.63,0,5.52,5.52,0,0,0,1.51-2.91,37,37,0,0,0,.25-5.37,37.15,37.15,0,0,0-.25-5.38A5.59,5.59,0,0,0,49.16,46.44Zm-2,15.34h-.74V57.71L45.17,61h-.62l-1.32-3.28v4.09H42.5V55.62h.67l1.7,4.18,1.65-4.18h.68ZM43.43,52a1.45,1.45,0,0,0,.37.73,2,2,0,0,0,1.31.44,1.58,1.58,0,0,0,.74-.17,2.73,2.73,0,0,0,.62-.47l.13-.13.6.59-.14.13a2.81,2.81,0,0,1-2,.86,2.88,2.88,0,0,1-2-.72,2,2,0,0,1-.57-1.07,10.25,10.25,0,0,1-.08-1.67,10.25,10.25,0,0,1,.08-1.67,2,2,0,0,1,.57-1.07,2.88,2.88,0,0,1,2-.72,2.81,2.81,0,0,1,2,.86l.14.13-.6.59-.13-.13a2.82,2.82,0,0,0-.62-.48,1.58,1.58,0,0,0-.74-.16,2,2,0,0,0-1.31.44,1.45,1.45,0,0,0-.37.73,9.5,9.5,0,0,0-.07,1.48A9.5,9.5,0,0,0,43.43,52Z"/><path class="cls-3" d="M62.11,57.76l-.51-2a4.79,4.79,0,0,1,0-2.13l.51-2a1.24,1.24,0,0,0-.15-.78L60.73,49.3a4.88,4.88,0,0,1-.81-2l-.28-2a1.23,1.23,0,0,0-.44-.66l-1.76-1a4.81,4.81,0,0,1-1.5-1.51l-1-1.74a1.16,1.16,0,0,0-.66-.44l-2-.29a4.74,4.74,0,0,1-2-.81l-1.61-1.22a1.25,1.25,0,0,0-.63-.17h-.16l-2,.51a4.79,4.79,0,0,1-2.13,0l-2-.51h-.15a1.25,1.25,0,0,0-.63.17l-1.62,1.22a4.74,4.74,0,0,1-2,.81l-2,.29a1.15,1.15,0,0,0-.66.44l-1,1.75a4.88,4.88,0,0,1-1.5,1.5l-1.75,1a1.25,1.25,0,0,0-.45.66l-.28,2a4.74,4.74,0,0,1-.81,2l-1.22,1.62a1.18,1.18,0,0,0-.16.78l.51,2a4.79,4.79,0,0,1,0,2.13l-.51,2a1.19,1.19,0,0,0,.16.78L29,60.16a5,5,0,0,1,.81,2l.28,2a1.24,1.24,0,0,0,.45.67l1.75,1a4.88,4.88,0,0,1,1.5,1.5l1,1.75a1.2,1.2,0,0,0,.66.44l2,.28a4.89,4.89,0,0,1,2,.82L41,71.84a1.24,1.24,0,0,0,.62.17.42.42,0,0,0,.16,0l2-.5a4.79,4.79,0,0,1,2.13,0l2,.5A.42.42,0,0,0,48,72a1.18,1.18,0,0,0,.62-.17l1.63-1.23a4.92,4.92,0,0,1,2-.81l2-.28a1.22,1.22,0,0,0,.67-.44l1-1.75a4.84,4.84,0,0,1,1.51-1.51l1.75-1a1.22,1.22,0,0,0,.44-.67l.28-2a5,5,0,0,1,.81-2L62,58.54A1.25,1.25,0,0,0,62.11,57.76Zm-9.75,2.76A6.45,6.45,0,0,1,50.54,64a8.1,8.1,0,0,1-11.39,0,6.52,6.52,0,0,1-1.82-3.45A37,37,0,0,1,37,54.73a37,37,0,0,1,.29-5.79,6.55,6.55,0,0,1,1.82-3.46,8.12,8.12,0,0,1,11.39,0,6.48,6.48,0,0,1,1.82,3.46,37,37,0,0,1,.29,5.79A37,37,0,0,1,52.36,60.52Z"/><path d="M16.55,51.4a1.77,1.77,0,0,0-.3-.56,1.57,1.57,0,0,0-.49-.4,1.5,1.5,0,0,0-.63-.19,1.59,1.59,0,0,0-.65.06,1.77,1.77,0,0,0-.56.3,1.91,1.91,0,0,0-.4.49,2,2,0,0,0-.19.64,1.71,1.71,0,0,0,.07.64,1.89,1.89,0,0,0,.3.56,1.76,1.76,0,0,0,.5.4,1.59,1.59,0,0,0,.62.19H15a1.67,1.67,0,0,0,.49-.08,2,2,0,0,0,.56-.3,1.76,1.76,0,0,0,.4-.5,1.5,1.5,0,0,0,.19-.62A1.56,1.56,0,0,0,16.55,51.4Z"/><path class="cls-3" d="M21.17,35.87c.46.32.8.56,1,.72a2.47,2.47,0,0,1,.5.53,1.79,1.79,0,0,1,.26.66,2.21,2.21,0,0,1,0,.85,2.31,2.31,0,0,1-.34.79A2.25,2.25,0,0,1,22,40a2.16,2.16,0,0,1-.79.32,1.69,1.69,0,0,1-.71,0,2.48,2.48,0,0,1-.67-.27c-.23-.14-.58-.36-1-.68s-.8-.56-1-.72a2.47,2.47,0,0,1-.5-.53A1.81,1.81,0,0,1,17,37.5a2.18,2.18,0,0,1,.36-1.66,2.19,2.19,0,0,1,1.4-.92,1.69,1.69,0,0,1,.71,0,2.61,2.61,0,0,1,.67.27C20.36,35.33,20.71,35.55,21.17,35.87Zm-.27.39c-.41-.28-.72-.48-.95-.61a2.11,2.11,0,0,0-.62-.26,1.26,1.26,0,0,0-.58,0,1.58,1.58,0,0,0-.6.24,1.83,1.83,0,0,0-.46.46,2,2,0,0,0-.26.6,1.58,1.58,0,0,0,0,.65,1.35,1.35,0,0,0,.43.78,5.11,5.11,0,0,0,.48.41L19,39c.4.28.72.48.95.61a2.18,2.18,0,0,0,.61.26,1.26,1.26,0,0,0,.58,0,1.58,1.58,0,0,0,.6-.24,1.87,1.87,0,0,0,.47-.46,2,2,0,0,0,.26-.6,1.78,1.78,0,0,0,0-.65,1.31,1.31,0,0,0-.22-.54,2.27,2.27,0,0,0-.46-.48C21.61,36.76,21.31,36.54,20.9,36.26Z"/><path class="cls-3" d="M20.81,40.61a1.67,1.67,0,0,1-.39,0,3,3,0,0,1-.73-.3c-.24-.14-.59-.37-1.06-.69s-.8-.56-1-.73a2.87,2.87,0,0,1-.54-.57,2.13,2.13,0,0,1-.3-.74,2.48,2.48,0,0,1,0-.94,2.43,2.43,0,0,1,.37-.88,2.41,2.41,0,0,1,1.55-1,2.15,2.15,0,0,1,.8,0,3,3,0,0,1,.73.3c.24.14.58.36,1.06.69s.81.56,1,.73a2.87,2.87,0,0,1,.54.57,1.94,1.94,0,0,1,.29.74,2.29,2.29,0,0,1,0,.94,2.36,2.36,0,0,1-.37.88,2.71,2.71,0,0,1-.68.67,2.53,2.53,0,0,1-.87.35A2,2,0,0,1,20.81,40.61Zm-3.63-3.39a.85.85,0,0,0,0,.23,1.6,1.6,0,0,0,.22.58,2.53,2.53,0,0,0,.46.47c.2.17.54.41,1,.72s.8.53,1,.67a2.38,2.38,0,0,0,.61.25,1.61,1.61,0,0,0,.62,0l.32-.1-.25.07a1.68,1.68,0,0,1-.67,0,2.52,2.52,0,0,1-.67-.29c-.24-.13-.56-.34-1-.62l-.7-.49a5.78,5.78,0,0,1-.5-.43,1.68,1.68,0,0,1-.33-.42,1.7,1.7,0,0,1-.17-.48S17.19,37.27,17.18,37.22ZM19,35.57a1,1,0,0,0-.24,0,1.24,1.24,0,0,0-.52.21,1.52,1.52,0,0,0-.4.4,1.6,1.6,0,0,0-.22.52,1.18,1.18,0,0,0,0,.56,1.2,1.2,0,0,0,.11.35A2,2,0,0,0,18,38a3.88,3.88,0,0,0,.46.38c.18.14.4.3.68.49s.71.47.94.6a2.09,2.09,0,0,0,.55.24,1.34,1.34,0,0,0,.49,0,1.41,1.41,0,0,0,.52-.22,1.73,1.73,0,0,0,.41-.4,1.41,1.41,0,0,0,.22-.52,1.5,1.5,0,0,0,0-.56,1.27,1.27,0,0,0-.19-.46,2.38,2.38,0,0,0-.42-.43l-.9-.65c-.4-.27-.72-.47-.94-.6a2,2,0,0,0-.56-.24A1,1,0,0,0,19,35.57Zm0-.44a2.2,2.2,0,0,1,.36,0,2.66,2.66,0,0,1,.67.29c.23.13.56.34,1,.62s.72.51.92.67a2.47,2.47,0,0,1,.51.52,1.48,1.48,0,0,1,.26.63,1.55,1.55,0,0,1,0,.31,1.63,1.63,0,0,0,0-.39,1.6,1.6,0,0,0-.22-.58,2.53,2.53,0,0,0-.46-.47q-.3-.24-1-.72c-.46-.31-.81-.53-1-.66a2.23,2.23,0,0,0-.61-.26,1.61,1.61,0,0,0-.62,0l-.29.08.21-.05Z"/><path class="cls-3" d="M26.49,27.34l-2.62,2,1.57,2,2.23-1.73.26.34L25.7,31.73,27.43,34l-.38.29-3.82-4.93,3-2.32Z"/><path class="cls-3" d="M27,34.57l-4.09-5.28,3.35-2.59.53.68-2.62,2,1.3,1.68,2.23-1.73.53.69L26,31.77,27.74,34Zm-3.47-5.2L27.09,34l0,0-1.73-2.24h0l-1.82-2.34Z"/><path class="cls-3" d="M35.39,23.15l-3.1,1.16.9,2.41,2.64-1,.14.39-2.64,1,1,2.65-.45.17-2.19-5.85,3.55-1.32Z"/><path class="cls-3" d="M33.75,30.21,31.41,24l4-1.48.3.81-3.1,1.16.74,2,2.65-1,.3.81-2.64,1,1,2.65Zm-1.77-6,2,5.44,0,0-1-2.65h0L32,24.2Z"/><path class="cls-3" d="M42.23,27.79l-.48.05-.66-6.21.47-.05Z"/><path class="cls-3" d="M41.56,28.08l-.71-6.65.91-.09L42.47,28Zm-.23-6.25L42,27.59h0l-.61-5.77Z"/><path class="cls-3" d="M51.5,26.57a2.23,2.23,0,0,1-.54.91,1.82,1.82,0,0,1-.83.5,2.09,2.09,0,0,1-1,.06,2.12,2.12,0,0,1-.82-.29,2.18,2.18,0,0,1-.63-.58,1.77,1.77,0,0,1-.3-.64,2.41,2.41,0,0,1,0-.72c0-.27.08-.68.17-1.23s.16-1,.22-1.22a2.47,2.47,0,0,1,.26-.68,1.79,1.79,0,0,1,.48-.52,2.3,2.3,0,0,1,.78-.35,2.12,2.12,0,0,1,.87,0,2.24,2.24,0,0,1,.94.37,1.94,1.94,0,0,1,.63.73,2.4,2.4,0,0,1,.24,1l-.48-.07A1.77,1.77,0,0,0,51,22.73a1.62,1.62,0,0,0-1-.54,1.62,1.62,0,0,0-1.56.59,1.91,1.91,0,0,0-.21.43,5.31,5.31,0,0,0-.16.61c0,.23-.09.5-.14.83-.08.49-.13.86-.15,1.12a2.38,2.38,0,0,0,0,.67,1.41,1.41,0,0,0,.24.53,1.68,1.68,0,0,0,.48.44,1.66,1.66,0,0,0,.61.22,1.7,1.7,0,0,0,.78-.05,1.58,1.58,0,0,0,.64-.39,1.9,1.9,0,0,0,.44-.69Z"/><path class="cls-3" d="M49.51,28.3a2,2,0,0,1-.42,0,2.5,2.5,0,0,1-.89-.32,2.38,2.38,0,0,1-.7-.64,1.86,1.86,0,0,1-.33-.72,2.51,2.51,0,0,1-.05-.79c0-.28.08-.7.17-1.25s.16-1,.22-1.23a2.79,2.79,0,0,1,.29-.74,2,2,0,0,1,.54-.58,2.27,2.27,0,0,1,.85-.39,2.38,2.38,0,0,1,1,0,2.45,2.45,0,0,1,1,.41,2.14,2.14,0,0,1,.7.82,2.63,2.63,0,0,1,.26,1.11v.27L51.24,24v-.18a1.6,1.6,0,0,0-.36-1,1.38,1.38,0,0,0-.85-.46,1.55,1.55,0,0,0-.57,0,1.43,1.43,0,0,0-.52.23,1.56,1.56,0,0,0-.26.25,1.7,1.7,0,0,0-.18.38,3.1,3.1,0,0,0-.15.57c-.05.22-.09.5-.15.83-.07.49-.12.85-.14,1.1a1.88,1.88,0,0,0,0,.6,1.06,1.06,0,0,0,.19.45,1.69,1.69,0,0,0,.42.38,1.45,1.45,0,0,0,.54.19,1.37,1.37,0,0,0,.67,0,1.48,1.48,0,0,0,.56-.34,1.86,1.86,0,0,0,.38-.6l.06-.17.9.14-.09.25a2.48,2.48,0,0,1-.59,1,2,2,0,0,1-.92.56A2.31,2.31,0,0,1,49.51,28.3Zm1.67-1.55a2,2,0,0,1-.41.59,1.92,1.92,0,0,1-.5.36,1.62,1.62,0,0,0,.53-.38,1.92,1.92,0,0,0,.39-.57ZM48.83,22.2l-.23.14a1.76,1.76,0,0,0-.42.45,2.36,2.36,0,0,0-.24.62c-.06.26-.13.66-.22,1.2s-.13.95-.16,1.22a2.25,2.25,0,0,0,0,.65,1.49,1.49,0,0,0,.26.56,1.55,1.55,0,0,0,.24.27,1.18,1.18,0,0,1-.18-.21,1.61,1.61,0,0,1-.28-.61,2.89,2.89,0,0,1,0-.74c0-.25.07-.62.15-1.13.05-.33.1-.62.15-.85a4.11,4.11,0,0,1,.16-.63,2.22,2.22,0,0,1,.25-.49,1.65,1.65,0,0,1,.35-.35Zm2.83,1.44h0a2.28,2.28,0,0,0-.2-.67,1.59,1.59,0,0,0-.49-.6,1,1,0,0,1,.21.21A1.92,1.92,0,0,1,51.66,23.64Z"/><path class="cls-3" d="M56.13,30.11l-.43-.19,2.55-5.7.43.2Z"/><path class="cls-3" d="M56.24,30.4,55.41,30l2.73-6.1.84.38ZM56,29.81h0l2.37-5.29h0Z"/><path class="cls-3" d="M63.79,35.21l-.4-.32.52-1.52-2.27-1.82-1.37.84-.39-.32,5.69-3.43.34.27ZM64.06,33l1.28-3.69-3.31,2Z"/><path class="cls-3" d="M63.89,35.58,63.13,35l.52-1.52-2-1.63-1.36.84-.77-.61,6.1-3.68.57.46Zm-.24-.76,0,0,1.09-3.25-.6,1.73h0Zm-1.24-3.49L64,32.58l1-2.8Zm-2.15.77,0,0,1.36-.83h0L63,30.44Z"/><path class="cls-3" d="M68.6,41.52l-2.11-3.15,5.18-3.48.27.4L67.1,38.53,69,41.28Z"/><path class="cls-3" d="M68.54,41.82l-2.36-3.51,5.55-3.72.51.76-4.83,3.24,1.84,2.75ZM66.8,38.43v0l4.82-3.23,0,0Z"/><path d="M76.17,51.07a1.57,1.57,0,0,0-.4-.49,1.77,1.77,0,0,0-.56-.3,1.63,1.63,0,0,0-.65-.07,1.67,1.67,0,0,0-.61.19,2,2,0,0,0-.5.41,1.79,1.79,0,0,0-.3.56,1.56,1.56,0,0,0-.07.64,1.59,1.59,0,0,0,.19.63,1.63,1.63,0,0,0,.41.49,1.55,1.55,0,0,0,.55.3,1.61,1.61,0,0,0,.48.08h.17a1.65,1.65,0,0,0,.63-.19,1.75,1.75,0,0,0,.49-.4,1.69,1.69,0,0,0,.37-1.21A1.66,1.66,0,0,0,76.17,51.07Z"/><path class="cls-3" d="M15.07,65.35A2.58,2.58,0,0,1,14,65.23a1.9,1.9,0,0,1-.8-.54,2.29,2.29,0,0,1-.55-1.76,2.27,2.27,0,0,1,.26-.81,1.77,1.77,0,0,1,.46-.54,2.56,2.56,0,0,1,.64-.33c.25-.1.65-.22,1.19-.37s.94-.25,1.2-.31a2.57,2.57,0,0,1,.72,0,1.76,1.76,0,0,1,.67.22,2.18,2.18,0,0,1,.65.56,2.31,2.31,0,0,1,.45,1.79,1.93,1.93,0,0,1-.41.88,2.59,2.59,0,0,1-.83.64l-.13-.46a1.82,1.82,0,0,0,.83-.84,1.59,1.59,0,0,0,.08-1.12,1.81,1.81,0,0,0-.29-.59,1.75,1.75,0,0,0-.5-.43,1.63,1.63,0,0,0-.4-.15,1.8,1.8,0,0,0-.48,0,5.7,5.7,0,0,0-.61.11l-.82.22q-.72.19-1.08.33a2.4,2.4,0,0,0-.6.31,1.44,1.44,0,0,0-.38.43,1.73,1.73,0,0,0-.2.62,1.85,1.85,0,0,0,.06.66,1.65,1.65,0,0,0,.36.68,1.52,1.52,0,0,0,.63.42,1.81,1.81,0,0,0,.81.11Z"/><path class="cls-3" d="M14.8,65.58a2.66,2.66,0,0,1-.85-.14,2.3,2.3,0,0,1-.9-.6,2.5,2.5,0,0,1-.52-1,2.54,2.54,0,0,1-.08-1,2.57,2.57,0,0,1,.29-.9,2.1,2.1,0,0,1,.52-.61A3,3,0,0,1,14,61c.27-.1.69-.23,1.21-.37s.94-.26,1.22-.31a2.35,2.35,0,0,1,.78,0,1.89,1.89,0,0,1,.76.25,2.32,2.32,0,0,1,.71.61,2.44,2.44,0,0,1,.43.85,2.53,2.53,0,0,1,.07,1.12,2.16,2.16,0,0,1-.46,1,2.6,2.6,0,0,1-.91.7l-.23.11L17.28,64l.16-.08a1.52,1.52,0,0,0,.73-.73A1.51,1.51,0,0,0,18,61.75a1.25,1.25,0,0,0-.42-.37,1.12,1.12,0,0,0-.34-.13,1.81,1.81,0,0,0-.42,0,4.39,4.39,0,0,0-.58.11l-.81.21c-.47.13-.83.24-1.07.33a2,2,0,0,0-.54.28,1.12,1.12,0,0,0-.32.36,1.48,1.48,0,0,0-.17.54,1.58,1.58,0,0,0,0,.57,1.36,1.36,0,0,0,.32.59,1.29,1.29,0,0,0,.54.36,1.54,1.54,0,0,0,.71.1h.18l.25.87-.27,0Zm-1.29-.91a1.6,1.6,0,0,0,.59.35,1.91,1.91,0,0,0,.68.12h0a2.18,2.18,0,0,1-.72-.13A1.92,1.92,0,0,1,13.51,64.67Zm4.29-.41v0a2.14,2.14,0,0,0,.53-.45,1.82,1.82,0,0,0,.35-.71,1.72,1.72,0,0,1-.11.29A2,2,0,0,1,17.8,64.26Zm-.86-3.52a2.59,2.59,0,0,0-.47,0l-1.19.3c-.51.15-.92.27-1.17.36a2.51,2.51,0,0,0-.59.31,1.42,1.42,0,0,0-.39.47,2,2,0,0,0-.14.3l.11-.23a1.52,1.52,0,0,1,.44-.5,2.32,2.32,0,0,1,.65-.33,11,11,0,0,1,1.1-.34c.32-.09.59-.17.82-.22a5.55,5.55,0,0,1,.66-.12,2.24,2.24,0,0,1,.53,0,1.52,1.52,0,0,1,.47.18l.14.09-.2-.14a1.62,1.62,0,0,0-.59-.19Z"/><path class="cls-3" d="M20.08,77.17l-.31-.41.86-1.35-1.78-2.3-1.53.5-.31-.4,6.33-2,.26.34Zm.8-2.14L23,71.74,19.28,73Z"/><path class="cls-3" d="M20.1,77.55l-.6-.77.86-1.36-1.59-2-1.53.5-.6-.78,6.78-2.16.45.58Zm-.06-.8,0,0,1.78-2.85-.94,1.48h0Zm-.4-3.67,1.22,1.57,1.6-2.5Zm-2.26.24,0,0,1.51-.49h0l1.51-.5Z"/><path class="cls-3" d="M30.28,84.78l-.48-.27.14-3.24-1.49-.85L27,82.91l-.41-.24,3.11-5.41,2.05,1.19a2.08,2.08,0,0,1,.71.63,1.37,1.37,0,0,1,.26.81,1.62,1.62,0,0,1-.25.9,1.65,1.65,0,0,1-.89.79,1.75,1.75,0,0,1-1.19,0Zm1.8-4.22a1.18,1.18,0,0,0,.14-1,1.47,1.47,0,0,0-.71-.78l-1.59-.92-1.26,2.19,1.6.92a1.89,1.89,0,0,0,.52.21,1.16,1.16,0,0,0,.49,0,1,1,0,0,0,.44-.2A1.44,1.44,0,0,0,32.08,80.56Z"/><path class="cls-3" d="M30.48,85.16l-.91-.53.14-3.23-1.18-.68L27.1,83.21l-.8-.45L29.63,77l2.26,1.3a2.34,2.34,0,0,1,.77.69,1.66,1.66,0,0,1,.3.93,1.88,1.88,0,0,1-.28,1,1.83,1.83,0,0,1-1,.88,1.86,1.86,0,0,1-1.05,0ZM30,84.38l.05,0,.13-3.19.28.1a1.53,1.53,0,0,0,1.05.05,1.65,1.65,0,0,0,1-1.47,1.24,1.24,0,0,0-.22-.7l0-.06a1.11,1.11,0,0,1,.18.34,1.39,1.39,0,0,1-.16,1.19,1.64,1.64,0,0,1-.43.5,1.34,1.34,0,0,1-.53.24,1.62,1.62,0,0,1-.58,0,2.07,2.07,0,0,1-.56-.23Zm-3.11-1.79,0,0,1.43-2.49h0l1.46-2.54h0ZM29,80l1.41.81a1.38,1.38,0,0,0,.46.18.91.91,0,0,0,.4,0,1.09,1.09,0,0,0,.35-.16,1.27,1.27,0,0,0,.3-.37.93.93,0,0,0,.13-.82A1.24,1.24,0,0,0,31.4,79l-1.4-.8Z"/><path class="cls-3" d="M52.65,87.23l-.47.08-.81-5.08-1.2,4.51-.47.07L47.13,82.9,47.94,88l-.47.07-1-6.16.47-.07,2.9,4.41,1.34-5.09.47-.07Z"/><path class="cls-3" d="M47.28,88.31l-1-6.6.83-.13,2.7,4.11L51,81l.83-.13,1,6.6-.91.14-.67-4.27-1,3.64-.75.12-2.09-3.17.68,4.28Zm-.54-6.24.91,5.73h0l-.91-5.73Zm4.71-.74.91,5.72h0l-.91-5.73Zm-4.61.73,3,4.51h0l-3-4.51Zm4.54-.72-.15.56.15-.56Z"/><path class="cls-3" d="M65.1,81.32l-.42.28-1.28-1L61,82.21l.37,1.56-.43.28-1.47-6.49.35-.23Zm-2.06-1L60,78l.9,3.79Z"/><path class="cls-3" d="M60.75,84.4l-1.57-6.94.61-.4,5.7,4.27-.82.54-1.28-1-2.18,1.42.37,1.56Zm-.42-3.85L61,83.69l0,0-.37-1.55h0Zm0-2L61,81.41l1.67-1.08Zm3.12,1.83,1.27,1,0,0-2.67-2,1.38,1Z"/><path class="cls-3" d="M68.34,69.18l-1.1,1.51L72,74.11l-.28.38L67,71.08l-1.09,1.5-.34-.24L68,68.94Z"/><path class="cls-3" d="M71.73,74.8,67,71.39l-1.09,1.5-.7-.5L68,68.63l.7.5-1.1,1.51,4.72,3.42Zm-4.8-4,4.7,3.4,0,0L67,70.76Z"/><path class="cls-3" d="M75.94,61a1.74,1.74,0,0,1,.65.33,1.49,1.49,0,0,1,.42.54,1.87,1.87,0,0,1,.16.74,3.05,3.05,0,0,1-.11.87,3.86,3.86,0,0,1-.3.77,2.5,2.5,0,0,1-.43.58,4.19,4.19,0,0,1-.61.45l-.23-.41a3.51,3.51,0,0,0,.57-.41,1.68,1.68,0,0,0,.36-.48,2.58,2.58,0,0,0,.24-.63,2.2,2.2,0,0,0,.08-.86,1.19,1.19,0,0,0-.9-1,1,1,0,0,0-1.23.38,3.05,3.05,0,0,0-.27.5L74,63a2.14,2.14,0,0,1-.73.95,1.41,1.41,0,0,1-1.23.17,1.7,1.7,0,0,1-.66-.32,1.48,1.48,0,0,1-.42-.51,1.84,1.84,0,0,1-.16-.68,2.49,2.49,0,0,1,.09-.8,2.84,2.84,0,0,1,.41-.91,3,3,0,0,1,.71-.65l.22.38a2.39,2.39,0,0,0-.6.52,2.32,2.32,0,0,0-.36.79,1.59,1.59,0,0,0,.06,1.11,1.24,1.24,0,0,0,.81.62,1,1,0,0,0,.87-.1,1.65,1.65,0,0,0,.35-.35,1.87,1.87,0,0,0,.26-.45l.28-.62a4,4,0,0,1,.33-.61,1.47,1.47,0,0,1,1-.61A1.63,1.63,0,0,1,75.94,61Z"/><path class="cls-3" d="M75.64,65.58l-.46-.79.2-.11a3.47,3.47,0,0,0,.53-.38,2.12,2.12,0,0,0,.32-.42,3.65,3.65,0,0,0,.22-.59,1.91,1.91,0,0,0,.07-.77,1,1,0,0,0-.24-.54,1,1,0,0,0-.5-.3.92.92,0,0,0-.76.07,1,1,0,0,0-.23.23,3.41,3.41,0,0,0-.25.46l-.29.67a2.36,2.36,0,0,1-.82,1,1.63,1.63,0,0,1-1.41.21,1.87,1.87,0,0,1-.73-.37,1.58,1.58,0,0,1-.48-.58,1.79,1.79,0,0,1-.19-.77,2.71,2.71,0,0,1,.1-.87,2.74,2.74,0,0,1,1.21-1.69l.19-.13.44.77-.17.11a2.14,2.14,0,0,0-.54.48,2.07,2.07,0,0,0-.32.7,1.29,1.29,0,0,0,0,1,1,1,0,0,0,.67.5,1.24,1.24,0,0,0,.31.05h0a.65.65,0,0,0,.37-.11,1.41,1.41,0,0,0,.3-.3,2.12,2.12,0,0,0,.24-.4l.28-.63a4.57,4.57,0,0,1,.35-.65,1.63,1.63,0,0,1,.42-.41,1.66,1.66,0,0,1,.7-.29,1.94,1.94,0,0,1,.79,0,2.17,2.17,0,0,1,.73.36,1.66,1.66,0,0,1,.48.63,2.1,2.1,0,0,1,.18.82,3.15,3.15,0,0,1-.12.94,3.8,3.8,0,0,1-.31.81,2.56,2.56,0,0,1-.48.64,3.32,3.32,0,0,1-.65.48Zm.15-.64v0c.14-.1.26-.2.38-.3a1.59,1.59,0,0,0,.2-.24,1.54,1.54,0,0,1-.17.19A2.89,2.89,0,0,1,75.79,64.94Zm-4.51-1.59a1.18,1.18,0,0,0,.28.31,1.52,1.52,0,0,0,.57.28,1.21,1.21,0,0,0,1.05-.14,1.75,1.75,0,0,0,.58-.69c-.05.09-.12.18-.19.28a1.8,1.8,0,0,1-.39.39,1.07,1.07,0,0,1-.63.19h0a1.71,1.71,0,0,1-.43-.06A1.45,1.45,0,0,1,71.28,63.35Zm4.17-2.16a1.72,1.72,0,0,1,.44.06,1.5,1.5,0,0,1,.73.44,1.58,1.58,0,0,1,.24.39l0-.12a1.34,1.34,0,0,0-.36-.46,1.55,1.55,0,0,0-.56-.28,1.43,1.43,0,0,0-.61,0,1.24,1.24,0,0,0-.52.21,1.1,1.1,0,0,0-.25.23,1.51,1.51,0,0,1,.26-.24A1.22,1.22,0,0,1,75.45,61.19Z"/></g></g></svg>